<svg width="100" height="100" viewBox="0 0 100 100" fill="none" xmlns="http://www.w3.org/2000/svg">
<path d="M36.9453 31.812C36.9453 32.6753 36.2461 33.3745 35.3828 33.3745H22.5645C21.7012 33.3745 21.002 32.6753 21.002 31.812C21.002 30.9488 21.7012 30.2495 22.5645 30.2495H35.3828C36.2461 30.2495 36.9453 30.9488 36.9453 31.812ZM35.3828 39.4527H22.5645C21.7012 39.4527 21.002 40.1519 21.002 41.0152C21.002 41.8784 21.7012 42.5777 22.5645 42.5777H35.3828C36.2461 42.5777 36.9453 41.8784 36.9453 41.0152C36.9453 40.1519 36.2461 39.4527 35.3828 39.4527ZM35.3828 48.6558H22.5645C21.7012 48.6558 21.002 49.355 21.002 50.2183C21.002 51.0816 21.7012 51.7808 22.5645 51.7808H35.3828C36.2461 51.7808 36.9453 51.0816 36.9453 50.2183C36.9453 49.355 36.2461 48.6558 35.3828 48.6558ZM86.6035 34.1011C86.8652 34.5562 86.8828 35.1128 86.6484 35.5816C86.4141 36.0503 85.959 36.3706 85.4375 36.4331L72.0801 38.0327V41.6323L82.5117 49.7671C82.8906 50.064 83.1133 50.5171 83.1133 50.9995V96.8413C83.1133 97.7046 82.4141 98.4038 81.5508 98.4038H3.125C2.26172 98.4038 1.5625 97.7046 1.5625 96.8413V50.9995C1.5625 50.5171 1.78516 50.064 2.16406 49.7671L12.5977 41.6323V24.5816C12.5977 23.7183 13.2969 23.0191 14.1602 23.0191H54.332L67.5215 5.40383C67.8359 4.98391 68.3398 4.74954 68.8652 4.78079C69.3887 4.81204 69.8633 5.10501 70.125 5.56008L73.6445 11.6577C78.291 10.898 82.625 12.6382 84.6738 16.187C86.7227 19.7359 86.0625 24.3589 83.082 28.0034L86.6016 34.1011H86.6035ZM75.3535 14.6148L77.3184 18.0171L81.377 25.0464C82.9238 22.6206 83.1914 19.8648 81.9707 17.7495C80.75 15.6343 78.2305 14.4878 75.3555 14.6148H75.3535ZM46.5371 32.2652C43.5176 34.0093 43.457 37.0269 44.7383 39.2437C46.0195 41.4605 48.6621 42.9195 51.6816 41.1753L58.4609 37.2613L53.3164 28.3511L46.5371 32.2652ZM56.2578 42.1421L59.1953 47.232L62.9609 45.0581L60.0234 39.9683L56.2578 42.1421ZM61.4336 36.1597L75.3359 34.4956L64.1504 15.1206L55.7578 26.3277L61.4336 36.1597ZM51.1074 70.6031L79.9883 93.5992V53.7222L51.1074 70.6031ZM43.6719 68.6773C42.875 68.0425 41.8008 68.0425 41.0039 68.6773L7.5957 95.2788H77.0801L43.6719 68.6792V68.6773ZM33.5684 70.6031L4.6875 53.7222V93.5992L33.5684 70.6031ZM12.5977 45.5933L5.9043 50.812L12.5977 54.7241V45.5933ZM72.0781 45.5933V54.7241L78.7715 50.812L72.0781 45.5933ZM68.9531 38.4058L63.1328 39.1031L66.4492 44.8472C66.6562 45.2066 66.7129 45.6323 66.6055 46.0327C66.498 46.4331 66.2363 46.7749 65.877 46.982L59.4043 50.7183C59.1582 50.8609 58.8887 50.9273 58.625 50.9273C58.0859 50.9273 57.5605 50.646 57.2695 50.146L53.5508 43.7046L53.2441 43.8824C51.8066 44.7124 50.3828 45.0757 49.041 45.0757C46.043 45.0757 43.4512 43.2671 42.0312 40.8081C39.9766 37.2495 40.3281 32.2437 44.9746 29.5601L50.8887 26.146H15.7227V56.5542L36.1895 68.5191L39.0566 66.2359C40.9883 64.6968 43.6875 64.6968 45.6191 66.2359L48.4863 68.5191L68.9531 56.5542V38.4077V38.4058ZM82.7129 33.6109L73.793 18.1616L71.502 14.1948L68.6035 9.17337L66.1875 12.3999L78.7109 34.0913L82.7129 33.6128V33.6109ZM82.8027 10.4292C83.0312 10.5464 83.2734 10.6011 83.5117 10.6011C84.0801 10.6011 84.6289 10.2906 84.9043 9.74954L87.9062 3.87454C88.2988 3.10696 87.9941 2.16555 87.2266 1.77298C86.459 1.3804 85.5176 1.68508 85.125 2.45266L82.123 8.32766C81.7305 9.09524 82.0352 10.0366 82.8027 10.4292ZM96.9551 19.5445L90.3652 19.2066C89.5059 19.1616 88.7695 19.8257 88.7246 20.687C88.6797 21.5484 89.3438 22.2827 90.2051 22.3277L96.7949 22.6656C96.8223 22.6656 96.8496 22.6675 96.877 22.6675C97.7031 22.6675 98.3926 22.0191 98.4355 21.1851C98.4805 20.3238 97.8164 19.5894 96.9551 19.5445ZM96.5566 11.0835C97.3008 10.646 97.5469 9.68704 97.1094 8.94485C96.6719 8.20071 95.7129 7.95462 94.9707 8.39212L87.209 12.9683C86.4648 13.4058 86.2188 14.3648 86.6562 15.107C86.9473 15.6011 87.4688 15.8765 88.0039 15.8765C88.2734 15.8765 88.5469 15.8062 88.7969 15.6597L96.5586 11.0835H96.5566Z" fill="white"/>
</svg>
