<svg width="100" height="100" viewBox="0 0 100 100" fill="none" xmlns="http://www.w3.org/2000/svg">
<path fill-rule="evenodd" clip-rule="evenodd" d="M16.4217 74.5532C12.9282 73.8403 9.59776 72.1287 6.88756 69.4185C-0.46773 62.0632 -0.46773 50.1403 6.88756 42.785C14.2429 35.4297 26.1658 35.4297 33.5211 42.785C36.8101 46.074 38.6283 50.2764 38.976 54.5752C42.6866 53.7172 46.4756 52.2619 50.4211 50.0613C56.5874 46.6213 63.7042 40.0485 67.7799 34.047L64.7909 32.0446C64.2997 31.7154 64.0352 31.1381 64.1068 30.5513C64.1785 29.9644 64.574 29.4676 65.1299 29.2664L78.2654 24.5111C78.7187 24.347 79.2223 24.4003 79.6309 24.6558C80.0397 24.9113 80.3082 25.3405 80.3593 25.8199L81.9152 40.4279C81.9797 41.0336 81.6876 41.6221 81.166 41.937C80.6444 42.2519 79.9876 42.2362 79.4817 41.8968L76.6503 39.9979C72.9511 45.4613 67.655 50.4007 61.0599 54.0815L61.0593 54.0817C53.7074 58.1815 45.8736 60.0879 38.6362 59.9795C37.9117 63.4383 36.2066 66.733 33.5211 69.4185C30.7925 72.1472 27.4354 73.8634 23.916 74.5676L23.9876 79.4197C24.985 79.9344 25.6803 80.9695 25.6995 82.1617L25.6997 82.1634L25.8285 90.7723H27.225V75.8709C27.225 75.0046 27.9272 74.3023 28.7936 74.3023H38.4627C39.3289 74.3023 40.0313 75.0046 40.0313 75.8709V90.7723H45.1825V66.1476C45.1825 65.2813 45.8848 64.5789 46.7511 64.5789H56.4203C57.2866 64.5789 57.9889 65.2813 57.9889 66.1476V90.7723H63.136V55.9987C63.136 55.1325 63.8382 54.4301 64.7046 54.4301H74.3778C75.2442 54.4301 75.9464 55.1325 75.9464 55.9987V90.7723H81.0935V46.8677C81.0935 46.0013 81.7958 45.2991 82.6621 45.2991H92.3313C93.1976 45.2991 93.8999 46.0013 93.8999 46.8677V90.7723H97.0574C97.9236 90.7723 98.626 91.4744 98.626 92.3409V97.0613C98.626 97.9276 97.9236 98.6299 97.0574 98.6299H24.0674C23.8342 98.6299 23.6129 98.5789 23.4138 98.4877C23.2174 98.5297 23.014 98.5532 22.8056 98.5566H22.8038L17.8931 98.6295H17.8909C16.1719 98.6562 14.7403 97.2736 14.7058 95.5476C14.7056 95.5448 14.7056 95.5419 14.7056 95.5391L14.5111 82.334C14.4868 80.9958 15.3174 79.8323 16.4938 79.3648L16.4217 74.5532ZM20.7836 74.9262C20.3776 74.9385 19.9709 74.9379 19.5648 74.9242L19.6278 79.1164L20.8452 79.0983L20.7836 74.9262ZM22.7605 95.4185L22.5627 82.2123C22.5627 82.2115 22.5636 82.2103 22.5629 82.2103L22.5609 82.2105L17.648 82.2832V82.2854C17.648 82.2854 17.8425 95.4852 17.8423 95.4846C17.8425 95.4877 17.8393 95.4926 17.8425 95.4926H17.8444L22.7554 95.4197C22.7564 95.4197 22.7576 95.4207 22.7583 95.4217C22.7591 95.4207 22.7599 95.4195 22.7605 95.4185ZM30.3623 90.7723H36.894C36.894 86.945 36.894 77.4395 36.894 77.4395H30.3623V90.7723ZM48.3197 90.7723H54.8517C54.8517 85.3479 54.8517 67.7162 54.8517 67.7162H48.3197V90.7723ZM66.2733 90.7723H72.8091C72.8091 83.9948 72.8091 57.5674 72.8091 57.5674H66.2733V90.7723ZM84.2307 90.7723H90.7627C90.7627 82.9393 90.7627 48.4364 90.7627 48.4364H84.2307V90.7723ZM25.8972 95.4926H95.4887V93.9095H25.8756L25.8976 95.3727C25.8982 95.4128 25.898 95.4528 25.8972 95.4926ZM31.3027 45.0034C25.1727 38.8734 15.2358 38.8734 9.1058 45.0034C2.9758 51.1334 2.9758 61.0701 9.1058 67.2001C15.2358 73.3301 25.1727 73.3301 31.3027 67.2001C37.4327 61.0701 37.4327 51.1334 31.3027 45.0034ZM29.8132 46.4928C35.1201 51.7999 35.1201 60.4036 29.8132 65.7107C24.5062 71.0177 15.9025 71.0177 10.5954 65.7107C5.28835 60.4036 5.28835 51.7999 10.5954 46.4928C15.9025 41.186 24.5062 41.186 29.8132 46.4928ZM27.5948 48.7113C23.5131 44.6295 16.8956 44.6295 12.8138 48.7113C8.73207 52.793 8.73207 59.4105 12.8138 63.4923C16.8956 67.574 23.5131 67.574 27.5948 63.4923C31.6766 59.4105 31.6766 52.793 27.5948 48.7113ZM43.3105 56.6211C48.6752 56.0338 54.2362 54.2944 59.5313 51.3419C66.1733 47.6348 71.4093 42.5664 74.867 36.9819C75.0913 36.6197 75.4531 36.3642 75.8693 36.2742C76.2858 36.1844 76.7207 36.2676 77.0744 36.5048L78.4399 37.4205L77.4517 28.1423L69.1101 31.1619L70.8083 32.2997C71.5082 32.7683 71.7129 33.7062 71.2721 34.4238C67.1448 41.1434 58.9699 48.8844 51.9493 52.8011C48.9984 54.447 46.1278 55.7013 43.3105 56.6211ZM35.8638 28.2987C36.2989 29.0928 36.5464 30.0046 36.5464 30.974C36.5464 34.0538 34.0497 36.5503 30.9701 36.5503C27.8905 36.5503 25.3938 34.0538 25.3938 30.974C25.3938 27.8944 27.8905 25.3977 30.9701 25.3977C31.9397 25.3977 32.8513 25.6452 33.6456 26.0803L38.5905 21.1352C39.2027 20.523 40.1968 20.523 40.8089 21.1352C41.4211 21.7475 41.4211 22.7415 40.8089 23.3536L35.8638 28.2987ZM30.9701 28.535C29.6231 28.535 28.5311 29.627 28.5311 30.974C28.5311 32.3211 29.6231 33.413 30.9701 33.413C32.3172 33.413 33.4091 32.3211 33.4091 30.974C33.4091 29.627 32.3172 28.535 30.9701 28.535ZM30.9701 1.375C47.3172 1.375 60.5693 14.627 60.5693 30.974C60.5693 31.8405 59.867 32.5426 59.0007 32.5426H48.5513C47.685 32.5426 46.9827 31.8405 46.9827 30.974C46.9827 22.1307 39.8134 14.9615 30.9701 14.9615C22.1268 14.9615 14.9576 22.1307 14.9576 30.974C14.9576 31.8405 14.2552 32.5426 13.3889 32.5426H2.93972C2.07345 32.5426 1.37109 31.8405 1.37109 30.974C1.37109 14.627 14.6231 1.375 30.9701 1.375ZM7.30462 19.1219C5.73658 22.2468 4.76913 25.725 4.55404 29.4054H11.8836C12.0744 27.0538 12.6899 24.8223 13.6534 22.7875L7.30462 19.1219ZM15.2246 20.0721C16.5356 18.1821 18.1782 16.5395 20.0682 15.2285L16.4027 8.87951C13.4142 10.8538 10.8499 13.4181 8.8756 16.4064L15.2246 20.0721ZM22.7836 13.6574C24.8183 12.6938 27.0499 12.0781 29.4015 11.8875V4.55794C25.7213 4.77304 22.2429 5.74049 19.1182 7.30853L22.7836 13.6574ZM32.5387 11.8875C34.8905 12.0781 37.1221 12.6938 39.1566 13.6574L42.8223 7.30853C39.6974 5.74049 36.2191 4.77304 32.5387 4.55794V11.8875ZM41.8721 15.2285C43.7621 16.5395 45.4046 18.1821 46.7158 20.0721L53.0646 16.4066C51.0905 13.4181 48.5262 10.8538 45.5378 8.87951L41.8721 15.2285ZM48.2868 22.7875C49.2503 24.8223 49.866 27.0538 50.0566 29.4054H57.3864C57.1711 25.7252 56.2038 22.2468 54.6358 19.1221L48.2868 22.7875Z" fill="white"/>
</svg>
