<svg width="100" height="100" viewBox="0 0 100 100" fill="none" xmlns="http://www.w3.org/2000/svg">
<path d="M6.25 32.8126H3.125V26.5626C3.12733 24.4913 3.95117 22.5055 5.4158 21.0409C6.88042 19.5762 8.86621 18.7524 10.9375 18.7501H64.0625V15.6251H60.9375C60.6285 15.6251 60.3264 15.5334 60.0694 15.3617C59.8124 15.1901 59.6122 14.946 59.4939 14.6605C59.3756 14.375 59.3447 14.0608 59.405 13.7577C59.4653 13.4546 59.6141 13.1762 59.8326 12.9577L69.2076 3.58267C69.3527 3.43757 69.525 3.32247 69.7145 3.24395C69.9041 3.16542 70.1073 3.125 70.3125 3.125C70.5177 3.125 70.7209 3.16542 70.9105 3.24395C71.1 3.32247 71.2723 3.43757 71.4174 3.58267L80.7924 12.9577C81.0109 13.1762 81.1597 13.4546 81.22 13.7577C81.2803 14.0608 81.2494 14.375 81.1311 14.6605C81.0128 14.946 80.8126 15.1901 80.5556 15.3617C80.2986 15.5334 79.9965 15.6251 79.6875 15.6251H76.5625V18.7501H82.8125C84.8838 18.7524 86.8696 19.5762 88.3342 21.0409C89.7988 22.5055 90.6227 24.4913 90.625 26.5626V57.8126H87.5V26.5626C87.4986 25.3198 87.0042 24.1284 86.1255 23.2496C85.2467 22.3708 84.0553 21.8765 82.8125 21.8751H76.5625V50.0001H73.4375V14.0626C73.4375 13.6482 73.6021 13.2507 73.8951 12.9577C74.1882 12.6647 74.5856 12.5001 75 12.5001H75.9154L70.3125 6.89713L64.7096 12.5001H65.625C66.0394 12.5001 66.4368 12.6647 66.7299 12.9577C67.0229 13.2507 67.1875 13.6482 67.1875 14.0626V51.5626H64.0625V21.8751H10.9375C9.69474 21.8765 8.5033 22.3708 7.62454 23.2496C6.74577 24.1284 6.25145 25.3198 6.25 26.5626V32.8126ZM10.9375 81.2501H36.9623L33.2123 93.7501H29.6875V96.8751H64.0625V93.7501H60.5377L58.5279 87.0508L55.5346 87.9493L57.275 93.7501H36.4742L40.2242 81.2501H51.5625V78.1251H10.9375C9.69474 78.1236 8.5033 77.6293 7.62454 76.7505C6.74577 75.8718 6.25145 74.6803 6.25 73.4376V71.8751H50V68.7501H6.25V35.9376H3.125V73.4376C3.12733 75.5089 3.95117 77.4946 5.4158 78.9593C6.88042 80.4239 8.86621 81.2477 10.9375 81.2501ZM57.8125 54.6876V29.6876H51.5625V65.6251H10.9375V62.5001H17.1875V50.0001C17.1875 49.5857 17.3521 49.1882 17.6451 48.8952C17.9382 48.6022 18.3356 48.4376 18.75 48.4376H28.125C28.5394 48.4376 28.9368 48.6022 29.2299 48.8952C29.5229 49.1882 29.6875 49.5857 29.6875 50.0001V62.5001H32.8125V39.0626C32.8125 38.6482 32.9771 38.2507 33.2701 37.9577C33.5632 37.6647 33.9606 37.5001 34.375 37.5001H43.75C44.1644 37.5001 44.5618 37.6647 44.8549 37.9577C45.1479 38.2507 45.3125 38.6482 45.3125 39.0626V62.5001H48.4375V28.1251C48.4375 27.7107 48.6021 27.3132 48.8951 27.0202C49.1882 26.7272 49.5856 26.5626 50 26.5626H59.375C59.7894 26.5626 60.1868 26.7272 60.4799 27.0202C60.7729 27.3132 60.9375 27.7107 60.9375 28.1251V54.6876H57.8125ZM26.5625 51.5626H20.3125V62.5001H26.5625V51.5626ZM42.1875 40.6251H35.9375V62.5001H42.1875V40.6251ZM10.9375 25.0001V28.1251H14.0625V25.0001H10.9375ZM20.3125 25.0001H17.1875V28.1251H20.3125V25.0001ZM23.4375 25.0001V28.1251H26.5625V25.0001H23.4375ZM95.5014 88.8737C96.3775 89.7545 96.8711 90.9452 96.875 92.1876C96.8756 92.8033 96.7547 93.4131 96.5193 93.9821C96.284 94.551 95.9387 95.068 95.5033 95.5034C95.0679 95.9388 94.551 96.284 93.982 96.5194C93.413 96.7548 92.8032 96.8756 92.1875 96.8751C90.9465 96.8642 89.7583 96.3717 88.8736 95.5014L81.3945 88.0225C77.4605 90.3432 72.815 91.1494 68.3291 90.2898C63.8432 89.4302 59.8248 86.9639 57.0273 83.3532C54.2299 79.7426 52.8454 75.2356 53.1334 70.6772C53.4215 66.1187 55.3623 61.8219 58.5921 58.5921C61.8218 55.3624 66.1187 53.4216 70.6771 53.1335C75.2356 52.8454 79.7426 54.2299 83.3532 57.0274C86.9638 59.8249 89.4301 63.8433 90.2897 68.3292C91.1493 72.8151 90.3432 77.4605 88.0225 81.3946L95.5014 88.8737ZM87.5 71.8751C87.5 68.7847 86.5836 65.7638 84.8667 63.1943C83.1498 60.6248 80.7095 58.6221 77.8544 57.4394C74.9993 56.2568 71.8577 55.9474 68.8267 56.5503C65.7958 57.1532 63.0117 58.6413 60.8265 60.8265C58.6413 63.0117 57.1531 65.7958 56.5502 68.8268C55.9473 71.8577 56.2568 74.9994 57.4394 77.8545C58.622 80.7096 60.6247 83.1499 63.1942 84.8668C65.7637 86.5837 68.7847 87.5001 71.875 87.5001C76.0176 87.4954 79.9891 85.8476 82.9183 82.9184C85.8476 79.9892 87.4953 76.0176 87.5 71.8751ZM93.2914 91.0836L86.1846 83.9764C85.5106 84.7721 84.772 85.5107 83.9764 86.1846L91.0836 93.2915C91.2271 93.4426 91.3994 93.5635 91.5904 93.647C91.7813 93.7305 91.9871 93.7749 92.1955 93.7776C92.4039 93.7803 92.6107 93.7413 92.8038 93.6628C92.9969 93.5842 93.1723 93.4679 93.3197 93.3205C93.467 93.1731 93.5834 92.9977 93.6619 92.8046C93.7404 92.6116 93.7795 92.4047 93.7768 92.1963C93.7741 91.9879 93.7297 91.7822 93.6462 91.5912C93.5627 91.4002 93.4418 91.2279 93.2906 91.0844L93.2914 91.0836ZM84.375 71.8751C84.375 74.3473 83.6419 76.7641 82.2684 78.8197C80.8949 80.8753 78.9426 82.4775 76.6585 83.4236C74.3745 84.3697 71.8611 84.6172 69.4364 84.1349C67.0116 83.6526 64.7843 82.4621 63.0362 80.7139C61.288 78.9657 60.0975 76.7384 59.6152 74.3137C59.1329 71.8889 59.3804 69.3756 60.3265 67.0915C61.2726 64.8074 62.8748 62.8552 64.9304 61.4817C66.986 60.1082 69.4027 59.3751 71.875 59.3751C75.1891 59.3788 78.3663 60.6969 80.7097 63.0403C83.0531 65.3837 84.3713 68.561 84.375 71.8751ZM81.25 71.8751C81.25 70.0209 80.7002 68.2083 79.67 66.6666C78.6399 65.1249 77.1757 63.9233 75.4627 63.2137C73.7496 62.5041 71.8646 62.3185 70.046 62.6802C68.2275 63.0419 66.557 63.9348 65.2459 65.2459C63.9348 66.557 63.0419 68.2275 62.6801 70.0461C62.3184 71.8647 62.5041 73.7497 63.2136 75.4627C63.9232 77.1758 65.1248 78.64 66.6665 79.6701C68.2082 80.7002 70.0208 81.2501 71.875 81.2501C74.3606 81.2473 76.7435 80.2587 78.5011 78.5012C80.2587 76.7436 81.2473 74.3606 81.25 71.8751ZM65.625 71.8751H68.75C68.751 71.0466 69.0805 70.2523 69.6664 69.6664C70.2522 69.0806 71.0465 68.751 71.875 68.7501V65.6251C70.218 65.6269 68.6293 66.286 67.4576 67.4577C66.2859 68.6294 65.6269 70.218 65.625 71.8751ZM85.9375 12.5001H89.0625C89.0598 10.0145 88.0712 7.63152 86.3136 5.87396C84.556 4.1164 82.1731 3.1278 79.6875 3.12506V6.25006C81.3445 6.25192 82.9332 6.911 84.1049 8.0827C85.2766 9.25439 85.9356 10.843 85.9375 12.5001Z" fill="black"/>
</svg>
