<svg width="100" height="100" viewBox="0 0 100 100" fill="none" xmlns="http://www.w3.org/2000/svg">
<path d="M48.9426 71.6883C49.1656 71.8139 49.4133 71.8764 49.6607 71.8764C49.9164 71.8764 50.1721 71.8096 50.4002 71.676C50.8494 71.4133 51.1256 70.9318 51.1256 70.4115V29.5654C51.1256 29.0449 50.8494 28.5637 50.4002 28.301C49.951 28.0381 49.3961 28.0336 48.9426 28.2887L28.7256 39.6607H16.6498C14.7512 39.6607 13.0826 40.6615 12.1416 42.1627C8.11582 42.4969 4.94141 45.8779 4.94141 49.9885C4.94141 54.099 8.11582 57.4801 12.1416 57.8143C13.0828 59.3154 14.7512 60.3162 16.6498 60.3162H16.693L24.8354 77.2129C25.0795 77.7197 25.5924 78.0418 26.1549 78.0418H32.8342C33.3092 78.0418 33.7547 77.8113 34.0295 77.4238C34.3041 77.0361 34.3738 76.5395 34.2162 76.0912L28.6721 60.316H28.7256L48.9426 71.6883ZM7.8709 49.9885C7.8709 47.7824 9.32871 45.9105 11.3314 45.2855V54.6916C9.32871 54.0664 7.8709 52.1945 7.8709 49.9885ZM14.2611 54.9979V44.9789C14.2611 43.6619 15.3326 42.5904 16.6496 42.5904H27.6441V47.0664C27.6441 47.8754 28.3 48.5312 29.109 48.5312C29.918 48.5312 30.5738 47.8754 30.5738 47.0664V41.9822L48.1957 32.0699V67.9068L30.5738 57.9945V52.9258C30.5738 52.1168 29.918 51.4609 29.109 51.4609C28.3 51.4609 27.6441 52.1168 27.6441 52.9258V57.3865H16.6498C15.3328 57.3865 14.2611 56.315 14.2611 54.9979ZM30.7666 75.1121H27.075L19.9449 60.3162H25.5664L30.7666 75.1121ZM66.0104 51.4533H58.432C57.623 51.4533 56.9672 50.7975 56.9672 49.9885C56.9672 49.1795 57.623 48.5236 58.432 48.5236H66.0104C66.8193 48.5236 67.4752 49.1795 67.4752 49.9885C67.4752 50.7975 66.8193 51.4533 66.0104 51.4533ZM54.7533 44.6437C54.1813 44.0717 54.1813 43.1441 54.7533 42.5723L60.1121 37.2135C60.6842 36.6414 61.6117 36.6414 62.1836 37.2135C62.7557 37.7855 62.7557 38.7131 62.1836 39.285L56.8248 44.6437C56.5389 44.9297 56.1639 45.0729 55.7891 45.0729C55.4143 45.0729 55.0393 44.9297 54.7533 44.6437ZM54.7533 55.3332C55.3254 54.7611 56.2529 54.7611 56.8248 55.3332L62.1836 60.692C62.7557 61.2641 62.7557 62.1916 62.1836 62.7635C61.8977 63.0494 61.5227 63.1926 61.1479 63.1926C60.773 63.1926 60.398 63.0496 60.1121 62.7635L54.7533 57.4047C54.1813 56.8328 54.1813 55.9053 54.7533 55.3332ZM69.9109 36.2125C69.9109 43.1467 75.5523 48.7881 82.4865 48.7881C89.4207 48.7881 95.0621 43.1467 95.0621 36.2125C95.0621 29.2783 89.4207 23.6369 82.4865 23.6369C75.5523 23.6369 69.9109 29.2783 69.9109 36.2125ZM82.4863 26.5668C87.8051 26.5668 92.1322 30.8939 92.1322 36.2127C92.1322 41.5314 87.8051 45.8586 82.4863 45.8586C77.1676 45.8586 72.8404 41.5314 72.8404 36.2127C72.8404 30.8939 77.1676 26.5668 82.4863 26.5668ZM82.4863 51.2041C75.5521 51.2041 69.9107 56.8455 69.9107 63.7797C69.9107 70.7139 75.5521 76.3553 82.4863 76.3553C89.4205 76.3553 95.0619 70.7139 95.0619 63.7797C95.0619 56.8455 89.4205 51.2041 82.4863 51.2041ZM82.4863 73.4254C77.1676 73.4254 72.8404 69.0982 72.8404 63.7795C72.8404 58.4607 77.1676 54.1336 82.4863 54.1336C87.8051 54.1336 92.1322 58.4607 92.1322 63.7795C92.1322 69.0982 87.8051 73.4254 82.4863 73.4254ZM78.132 34.3074C78.132 33.4984 78.7879 32.8426 79.5969 32.8426H80.8072V30.7109C80.8072 29.902 81.4631 29.2461 82.2721 29.2461C83.0811 29.2461 83.7369 29.902 83.7369 30.7109V32.8426H84.9475C85.7564 32.8426 86.4123 33.4984 86.4123 34.3074C86.4123 35.1164 85.7564 35.7723 84.9475 35.7723H83.7369V38.6104C83.7369 39.5141 84.4723 40.2492 85.376 40.2492C86.185 40.2492 86.8408 40.9051 86.8408 41.7141C86.8408 42.523 86.185 43.1789 85.376 43.1789C82.8568 43.1789 80.8072 41.1295 80.8072 38.6104V35.7723H79.5969C78.7879 35.7723 78.132 35.1164 78.132 34.3074ZM89.0277 63.7797C89.0277 67.3867 86.0934 70.3211 82.4863 70.3211C78.8795 70.3211 75.9449 67.3867 75.9449 63.7797C75.9449 60.1729 78.8793 57.2383 82.4863 57.2383C83.8953 57.2383 85.2377 57.6795 86.3686 58.5145C87.0193 58.9949 87.1576 59.9121 86.677 60.5629C86.1967 61.2137 85.2793 61.352 84.6285 60.8713C84.0053 60.4111 83.2645 60.168 82.4863 60.168C80.4949 60.168 78.8746 61.7881 78.8746 63.7797C78.8746 65.7713 80.4947 67.3914 82.4863 67.3914C83.9566 67.3914 85.2246 66.5082 85.7875 65.2445H82.4863C81.6773 65.2445 81.0215 64.5887 81.0215 63.7797C81.0215 62.9707 81.6773 62.3148 82.4863 62.3148H87.5629C88.3721 62.3148 89.0277 62.9707 89.0277 63.7797ZM61.9092 28.7604C68.8434 28.7604 74.4848 23.1189 74.4848 16.1848C74.4848 9.25059 68.8434 3.60938 61.9092 3.60938C54.975 3.60938 49.3338 9.25078 49.3338 16.185C49.3338 23.1191 54.975 28.7604 61.9092 28.7604ZM61.9092 6.53906C67.2279 6.53906 71.5551 10.8662 71.5551 16.185C71.5551 21.5037 67.2279 25.8309 61.9092 25.8309C56.5906 25.8309 52.2635 21.5037 52.2635 16.185C52.2635 10.8662 56.5906 6.53906 61.9092 6.53906ZM57.5549 15.4559C57.5549 14.6469 58.2107 13.991 59.0197 13.991H60.2301V13.7871C60.2301 11.268 62.2795 9.21836 64.7986 9.21836C65.6076 9.21836 66.2635 9.87422 66.2635 10.6832C66.2635 11.4922 65.6076 12.148 64.7986 12.148C63.8949 12.148 63.1598 12.8834 63.1598 13.7871V13.991H64.3701C65.1791 13.991 65.835 14.6469 65.835 15.4559C65.835 16.2648 65.1791 16.9207 64.3701 16.9207H63.1598V21.6865C63.1598 22.4955 62.5039 23.1514 61.6949 23.1514C60.8859 23.1514 60.2301 22.4955 60.2301 21.6865V16.9207H59.0197C58.2107 16.9207 57.5549 16.2648 57.5549 15.4559ZM61.9092 71.2318C54.975 71.2318 49.3338 76.8732 49.3338 83.8074C49.3338 90.7416 54.975 96.383 61.9092 96.383C68.8434 96.383 74.4848 90.7416 74.4848 83.8074C74.4848 76.8732 68.8434 71.2318 61.9092 71.2318ZM61.9092 93.4531C56.5906 93.4531 52.2635 89.126 52.2635 83.8072C52.2635 78.4885 56.5906 74.1613 61.9092 74.1613C67.2279 74.1613 71.5551 78.4885 71.5551 83.8072C71.5551 89.126 67.2279 93.4531 61.9092 93.4531ZM65.8111 80.391L61.5453 77.3869C60.7381 76.8184 59.9283 76.5301 59.1389 76.5301C57.6195 76.5301 56.0865 77.6707 56.0865 80.2193V87.3957C56.0865 89.9441 57.6195 91.085 59.1389 91.085C59.9283 91.085 60.7381 90.7967 61.5453 90.2281L65.8111 87.224C67.032 86.3643 67.732 85.1191 67.732 83.8076C67.732 82.4961 67.032 81.2506 65.8111 80.391ZM64.1242 84.8283L59.8584 87.8324C59.4631 88.1107 59.2289 88.1496 59.1561 88.1543C59.1051 88.0715 59.016 87.8359 59.016 87.3953V80.2189C59.016 79.7785 59.1051 79.543 59.1561 79.46C59.2289 79.4648 59.4631 79.5035 59.8582 79.7818L64.124 82.7859C64.5613 83.0939 64.8021 83.4566 64.8021 83.807C64.8021 84.1574 64.5615 84.5203 64.1242 84.8283Z" fill="white"/>
</svg>
