<svg width="100" height="100" viewBox="0 0 100 100" fill="none" xmlns="http://www.w3.org/2000/svg">
<g clip-path="url(#clip0_1029_2047)">
<path d="M50 81.8774C49.6875 81.8774 49.375 81.7211 49.0625 81.5649C45.4688 78.9086 41.875 76.7211 37.9688 75.4711C37.1875 75.1586 36.7188 74.3774 37.0312 73.5961C37.3438 72.8149 38.125 72.3461 38.9062 72.6586C42.1875 73.7524 45.3125 75.4711 48.2812 77.5024V19.8461C32.3438 7.81487 16.7188 12.5024 8.75 16.4086C5.9375 17.8149 3.90625 19.0649 3.125 19.8461V77.3461C6.875 75.0024 14.375 70.9399 23.9062 70.3149C24.6875 70.3149 25.4687 70.9399 25.4687 71.7211C25.4687 72.5024 24.8438 73.2836 24.0625 73.2836C11.7187 74.0649 2.65625 81.2524 2.5 81.4086C2.03125 81.7211 1.40625 81.8774 0.9375 81.5649C0.3125 81.4086 0 80.9399 0 80.3149V19.0649C0 18.5961 0.15625 18.1274 0.625 17.8149C0.78125 17.6586 3.28125 15.7836 7.5 13.5961C16.0938 9.37737 33.2812 4.22112 51.0938 17.6586C51.4062 17.9711 51.7187 18.4399 51.7187 18.9086V80.1586C51.7187 80.7836 51.4062 81.2524 50.9375 81.5649C50.4687 81.7211 50.1562 81.8774 50 81.8774Z" fill="white"/>
<path d="M8.125 77.8125C7.34375 77.8125 6.5625 77.1875 6.5625 76.25V15.1562C6.5625 14.375 7.1875 13.5938 8.125 13.5938C9.0625 13.5938 9.6875 14.2187 9.6875 15.1562V76.4062C9.53125 77.1875 8.90625 77.8125 8.125 77.8125Z" fill="white"/>
<path d="M49.9991 81.8794C49.5304 81.8794 49.0616 81.7232 48.7491 81.2544C48.2804 80.6294 48.4366 79.6919 49.0616 79.0669C69.8429 63.1294 90.1554 73.1294 97.0304 77.3482V19.8482C93.2804 17.1919 72.6554 3.5982 50.9366 20.3169C50.3116 20.7857 49.3741 20.6294 48.7491 20.0044C48.2804 19.3794 48.4366 18.4419 49.0616 17.8169C74.5304 -1.7143 99.2179 17.6607 99.3741 17.8169C99.6866 18.1294 99.9991 18.5982 99.9991 19.0669V80.3169C99.9991 80.9419 99.6866 81.4107 99.0616 81.7232C98.5929 82.0357 97.9679 81.8794 97.4991 81.5669C96.5616 80.7857 74.3741 63.4419 50.9366 81.5669C50.6241 81.7232 50.3116 81.8794 49.9991 81.8794Z" fill="white"/>
<path d="M91.875 77.8203C91.0938 77.8203 90.3125 77.1953 90.3125 76.2578V15.1641C90.3125 14.3828 90.9375 13.6016 91.875 13.6016C92.8125 13.6016 93.4375 14.2266 93.4375 15.1641V76.4141C93.4375 77.1953 92.8125 77.8203 91.875 77.8203Z" fill="white"/>
<path d="M44.9991 30.0054C44.6866 30.0054 44.3741 29.8492 44.0616 29.6929C43.4366 29.2242 28.7491 16.8804 13.2804 28.9117C12.6554 29.3804 11.7179 29.2242 11.0929 28.5992C10.6241 27.9742 10.7804 27.0367 11.4054 26.4117C28.9054 12.9742 45.9366 27.1929 46.0929 27.3492C46.7179 27.8179 46.8741 28.9117 46.2491 29.5367C45.9366 29.8492 45.4679 30.0054 44.9991 30.0054Z" fill="white"/>
<path d="M44.9991 39.5367C44.6866 39.5367 44.3741 39.3804 44.0616 39.2242C43.4366 38.7554 28.7491 26.4117 13.2804 38.4429C12.6554 38.9117 11.7179 38.7554 11.0929 38.1304C10.6241 37.5054 10.7804 36.5679 11.4054 35.9429C28.9054 22.5054 45.9366 36.7242 46.0929 36.8804C46.7179 37.3492 46.8741 38.4429 46.2491 39.0679C45.9366 39.3804 45.4679 39.5367 44.9991 39.5367Z" fill="white"/>
<path d="M44.9991 48.9117C44.6866 48.9117 44.3741 48.7554 44.0616 48.5992C43.4366 48.1304 28.7491 35.7867 13.2804 47.8179C12.6554 48.2867 11.7179 48.1304 11.0929 47.5054C10.6241 46.8804 10.7804 45.9429 11.4054 45.3179C28.9054 31.8804 45.9366 46.0992 46.0929 46.2554C46.7179 46.7242 46.8741 47.8179 46.2491 48.4429C45.9366 48.7554 45.4679 48.9117 44.9991 48.9117Z" fill="white"/>
<path d="M86.8741 59.6929C86.5616 59.6929 86.2491 59.5367 85.9366 59.3804C85.3116 58.9117 70.6241 46.5679 55.1554 58.5992C54.5304 59.0679 53.5929 58.9117 52.9679 58.2867C52.4991 57.6617 52.6554 56.7242 53.2804 56.0992C70.7804 42.6617 87.8116 56.8804 87.9679 57.0367C88.5929 57.5054 88.7491 58.5992 88.1241 59.2242C87.8116 59.5367 87.3429 59.6929 86.8741 59.6929Z" fill="white"/>
<path d="M86.8741 68.5992C86.5616 68.5992 86.2491 68.4429 85.9366 68.2867C85.3116 67.8179 70.6241 55.4742 55.1554 67.5054C54.5304 67.9742 53.5929 67.8179 52.9679 67.1929C52.4991 66.5679 52.6554 65.6304 53.2804 65.0054C70.7804 51.5679 87.8116 65.7867 87.9679 65.9429C88.5929 66.4117 88.7491 67.5054 88.1241 68.1304C87.8116 68.2867 87.3429 68.5992 86.8741 68.5992Z" fill="white"/>
<path d="M67.6563 48.2812C67.5 48.2812 67.1875 48.2812 67.0313 48.125C66.5625 47.8125 66.0938 47.3438 66.0938 46.7188V42.5H61.875C61.0938 42.5 60.3125 41.875 60.3125 40.9375V25.3125C60.3125 24.5313 60.9375 23.75 61.875 23.75H86.0938C86.875 23.75 87.6562 24.375 87.6562 25.3125V40.9375C87.6562 41.7188 87.0312 42.5 86.0938 42.5H74.8438L68.75 47.9688C68.4375 48.125 68.125 48.2812 67.6563 48.2812ZM63.4375 39.5312H67.6563C68.4375 39.5312 69.2188 40.1562 69.2188 41.0938V43.5938L73.2813 40C73.5938 39.6875 73.9063 39.6875 74.2188 39.6875H84.5312V27.0312H63.4375V39.5312Z" fill="white"/>
<path d="M70.4688 39.6875C70.1562 39.6875 70 39.6875 69.6875 39.5312C69.2187 39.2187 68.9062 38.75 68.9062 38.2812V29.5312C68.9062 29.0625 69.2187 28.4375 69.6875 28.2813C70.1562 27.9688 70.7812 27.9688 71.25 28.2813L78.75 32.6562C79.2188 32.9687 79.5313 33.4375 79.5313 33.9063C79.5313 34.375 79.2188 35 78.75 35.1562L71.25 39.5312C71.0938 39.5312 70.7812 39.6875 70.4688 39.6875ZM72.0312 32.0312V35.4688L75 33.75L72.0312 32.0312Z" fill="white"/>
<path d="M27.6562 51.7187C26.875 51.7187 26.0938 51.0937 26.0938 50.1562V46.5625C26.0938 45.7812 26.7187 45 27.6562 45C28.4375 45 29.2188 45.625 29.2188 46.5625V50.1562C29.2188 50.9375 28.5938 51.7187 27.6562 51.7187Z" fill="white"/>
<path d="M24.2163 52.814C23.7476 52.814 23.1226 52.5015 22.9663 52.0327L21.0913 48.9077C20.6226 48.1265 20.9351 47.189 21.7163 46.8765C22.4976 46.4077 23.4351 46.7202 23.7476 47.5015L25.6226 50.6265C26.0913 51.4077 25.7788 52.3452 24.9976 52.6577C24.6851 52.6577 24.3726 52.814 24.2163 52.814Z" fill="white"/>
<path d="M21.7173 55.6275C21.4048 55.6275 21.2486 55.6275 20.9361 55.4712L17.8111 53.5962C17.0298 53.1275 16.8736 52.19 17.1861 51.565C17.6548 50.7837 18.5923 50.6275 19.2173 50.94L22.3423 52.815C23.1236 53.2837 23.2798 54.2212 22.9673 54.8462C22.6548 55.315 22.1861 55.6275 21.7173 55.6275Z" fill="white"/>
<path d="M34.0601 54.8452C33.5913 54.8452 32.9663 54.5327 32.8101 54.064C32.3413 53.2827 32.6538 52.3452 33.4351 52.0327L36.5601 50.1577C37.3413 49.689 38.2788 50.0015 38.5913 50.7827C39.0601 51.564 38.7476 52.5015 37.9663 52.814L34.8413 54.689C34.6851 54.8452 34.3726 54.8452 34.0601 54.8452Z" fill="white"/>
<path d="M31.4048 52.3462C31.0923 52.3462 30.9361 52.3462 30.6236 52.19C29.8423 51.7212 29.6861 50.7837 29.9986 50.1587L31.8736 47.0337C32.3423 46.2525 33.2798 46.0962 33.9048 46.4087C34.6861 46.8775 34.8423 47.815 34.5298 48.44L32.6548 51.565C32.3423 52.19 31.8736 52.3462 31.4048 52.3462Z" fill="white"/>
<path d="M26.25 83.2781C25.4687 83.2781 24.6875 82.6531 24.6875 81.7156V80.4656C24.6875 79.6843 24.8438 78.9031 25.1563 78.1218C25.3125 77.6531 25.4687 77.3406 25.4687 77.0281C25.3125 76.8718 24.6875 76.5593 24.375 76.2468C23.2813 75.6218 22.1875 74.8406 22.1875 73.4343V67.9656C22.1875 66.8718 22.9687 65.7781 24.0625 65.4656C24.375 65.3093 24.6875 65.3093 24.8437 65.3093V56.8718C24.8437 55.9343 25.3125 54.9968 26.0938 54.5281C27.6563 53.4343 29.375 53.7468 30.625 54.9968C30.9375 55.3093 31.25 56.0906 31.25 56.5593V67.6531C31.25 68.4343 30.625 69.2156 29.6875 69.2156C28.75 69.2156 28.125 68.5906 28.125 67.6531V56.8718C28.125 56.8718 27.9687 56.8718 27.8125 57.0281V67.3406C27.8125 67.9656 27.3438 68.5906 26.7188 68.7468C26.0938 68.9031 25.625 68.7468 25.1563 68.4343C25.1563 68.4343 25.1563 68.4343 25 68.4343V73.2781C25.1563 73.4343 25.625 73.5906 25.7813 73.9031C26.875 74.5281 28.125 75.3093 28.2813 76.7156C28.2813 77.8093 27.9688 78.7468 27.6563 79.5281C27.5 79.8406 27.5 80.1531 27.5 80.6218V81.8718C27.8125 82.6531 27.1875 83.2781 26.25 83.2781Z" fill="white"/>
<path d="M32.9688 68.9013C32.1875 68.9013 31.4063 68.2763 31.4063 67.3388V63.4325C31.25 63.5888 31.0937 63.5888 30.9375 63.745C30.3125 64.37 29.375 64.37 28.75 63.745C28.125 63.12 28.125 62.1826 28.75 61.5576C29.0625 61.2451 30.3125 59.995 32.0313 60.3075C32.6563 60.4638 33.5938 60.7763 34.2188 62.0263C34.375 62.1826 34.375 62.4951 34.375 62.8076V67.4951C34.375 68.2763 33.75 68.9013 32.9688 68.9013Z" fill="white"/>
<path d="M35.7827 69.5271C35.6265 69.5271 35.6265 69.5271 35.4702 69.5271C34.689 69.3709 34.064 68.5896 34.2202 67.8084C34.5327 66.2459 34.689 64.5271 34.5327 63.9021C34.2202 63.9021 33.9077 64.0584 33.5952 64.2146C32.814 64.6834 31.8765 64.3709 31.564 63.5896C31.0952 62.8084 31.4077 61.8709 32.189 61.5584C33.7515 60.6209 35.939 60.4646 37.0327 62.0271C38.1265 63.4334 37.6577 66.7146 37.3452 68.4334C37.189 68.9021 36.564 69.5271 35.7827 69.5271Z" fill="white"/>
<path d="M37.1875 89.3696H35.625V77.1821C35.625 76.7134 35.9375 76.0884 36.4062 75.9321C36.5625 75.7759 37.0312 74.3696 37.1875 73.2759C37.3437 70.7759 37.5 67.0259 37.3437 65.1509C36.7187 65.7759 35.7812 65.7759 35.1563 65.1509C34.5313 64.5259 34.5313 63.5884 35.1563 62.9634C35.625 62.6509 37.0313 61.4009 38.4375 61.8696C38.9063 62.0259 39.8438 62.4946 40.1563 63.7446C40.625 65.7759 40.3125 72.3384 40.1563 73.5884C40 74.6821 39.6875 76.7134 38.75 77.8071V89.2134L37.1875 89.3696Z" fill="white"/>
<path d="M26.5625 72.1875C25.7812 72.1875 25 71.5625 25 70.625V67.3438C25 66.5625 25.625 65.7812 26.5625 65.7812C27.5 65.7812 28.125 66.4062 28.125 67.3438V70.625C28.125 71.5625 27.5 72.1875 26.5625 72.1875Z" fill="white"/>
<path d="M26.25 90.9375C25.4687 90.9375 24.6875 90.3125 24.6875 89.375V81.7187C24.6875 80.9375 25.3125 80.1562 26.25 80.1562H37.0313C37.8125 80.1562 38.5938 80.7812 38.5938 81.7187C38.5938 82.6562 37.9688 83.2812 37.0313 83.2812H27.8125V89.375C27.8125 90.1563 27.1875 90.9375 26.25 90.9375Z" fill="white"/>
</g>
<defs>
<clipPath id="clip0_1029_2047">
<rect width="100" height="100" fill="white"/>
</clipPath>
</defs>
</svg>
